<mxfile host="Electron" modified="2024-07-04T13:35:11.543Z" agent="Mozilla/5.0 (Macintosh; Intel Mac OS X 10_15_7) AppleWebKit/537.36 (KHTML, like Gecko) draw.io/24.4.6 Chrome/124.0.6367.207 Electron/30.0.6 Safari/537.36" etag="RxmX-buqu5ExvMPMSnnY" version="24.4.6" type="device">
  <diagram name="第 1 页" id="9MB-aU1BjjVIh4oMGjeD">
    <mxGraphModel dx="1224" dy="897" grid="1" gridSize="10" guides="1" tooltips="1" connect="1" arrows="1" fold="1" page="1" pageScale="1" pageWidth="827" pageHeight="1169" math="0" shadow="0">
      <root>
        <mxCell id="0" />
        <mxCell id="1" parent="0" />
        <mxCell id="NzZjmMYiEf_9rbdnEXQE-18" value="" style="ellipse;whiteSpace=wrap;html=1;" vertex="1" parent="1">
          <mxGeometry x="380" y="237.5" width="346" height="255" as="geometry" />
        </mxCell>
        <mxCell id="NzZjmMYiEf_9rbdnEXQE-3" value="用户态区域" style="rounded=0;whiteSpace=wrap;html=1;" vertex="1" parent="1">
          <mxGeometry x="120" y="200" width="120" height="160" as="geometry" />
        </mxCell>
        <mxCell id="NzZjmMYiEf_9rbdnEXQE-1" value="内核态区域" style="rounded=0;whiteSpace=wrap;html=1;" vertex="1" parent="1">
          <mxGeometry x="120" y="360" width="120" height="120" as="geometry" />
        </mxCell>
        <mxCell id="NzZjmMYiEf_9rbdnEXQE-2" value="用户程序" style="rounded=0;whiteSpace=wrap;html=1;" vertex="1" parent="1">
          <mxGeometry x="120" y="300" width="120" height="40" as="geometry" />
        </mxCell>
        <mxCell id="NzZjmMYiEf_9rbdnEXQE-4" value="0" style="text;html=1;align=center;verticalAlign=middle;resizable=0;points=[];autosize=1;strokeColor=none;fillColor=none;" vertex="1" parent="1">
          <mxGeometry x="235" y="468" width="30" height="30" as="geometry" />
        </mxCell>
        <mxCell id="NzZjmMYiEf_9rbdnEXQE-5" value="0x100000" style="text;html=1;align=center;verticalAlign=middle;resizable=0;points=[];autosize=1;strokeColor=none;fillColor=none;" vertex="1" parent="1">
          <mxGeometry x="230" y="350" width="80" height="30" as="geometry" />
        </mxCell>
        <mxCell id="NzZjmMYiEf_9rbdnEXQE-6" value="" style="endArrow=classic;html=1;rounded=0;entryX=0.5;entryY=0.417;entryDx=0;entryDy=0;entryPerimeter=0;" edge="1" parent="1">
          <mxGeometry width="50" height="50" relative="1" as="geometry">
            <mxPoint x="148" y="340" as="sourcePoint" />
            <mxPoint x="148" y="410.03999999999996" as="targetPoint" />
          </mxGeometry>
        </mxCell>
        <mxCell id="NzZjmMYiEf_9rbdnEXQE-23" style="edgeStyle=orthogonalEdgeStyle;rounded=0;orthogonalLoop=1;jettySize=auto;html=1;entryX=0;entryY=0.5;entryDx=0;entryDy=0;" edge="1" parent="1" source="NzZjmMYiEf_9rbdnEXQE-7" target="NzZjmMYiEf_9rbdnEXQE-19">
          <mxGeometry relative="1" as="geometry">
            <Array as="points">
              <mxPoint x="80" y="600" />
            </Array>
          </mxGeometry>
        </mxCell>
        <mxCell id="NzZjmMYiEf_9rbdnEXQE-7" value="中断 int 0x80" style="text;html=1;align=center;verticalAlign=middle;whiteSpace=wrap;rounded=0;" vertex="1" parent="1">
          <mxGeometry x="30" y="360" width="100" height="30" as="geometry" />
        </mxCell>
        <mxCell id="NzZjmMYiEf_9rbdnEXQE-12" value="" style="edgeStyle=orthogonalEdgeStyle;rounded=0;orthogonalLoop=1;jettySize=auto;html=1;" edge="1" parent="1" source="NzZjmMYiEf_9rbdnEXQE-10" target="NzZjmMYiEf_9rbdnEXQE-11">
          <mxGeometry relative="1" as="geometry" />
        </mxCell>
        <mxCell id="NzZjmMYiEf_9rbdnEXQE-10" value="CPL" style="text;html=1;align=center;verticalAlign=middle;resizable=0;points=[];autosize=1;strokeColor=none;fillColor=none;" vertex="1" parent="1">
          <mxGeometry x="445" y="298" width="50" height="30" as="geometry" />
        </mxCell>
        <mxCell id="NzZjmMYiEf_9rbdnEXQE-11" value="cs寄存器的段描述符中" style="whiteSpace=wrap;html=1;" vertex="1" parent="1">
          <mxGeometry x="405" y="390" width="130" height="27" as="geometry" />
        </mxCell>
        <mxCell id="NzZjmMYiEf_9rbdnEXQE-15" value="" style="edgeStyle=orthogonalEdgeStyle;rounded=0;orthogonalLoop=1;jettySize=auto;html=1;" edge="1" parent="1" source="NzZjmMYiEf_9rbdnEXQE-13" target="NzZjmMYiEf_9rbdnEXQE-14">
          <mxGeometry relative="1" as="geometry" />
        </mxCell>
        <mxCell id="NzZjmMYiEf_9rbdnEXQE-13" value="DPL" style="text;html=1;align=center;verticalAlign=middle;resizable=0;points=[];autosize=1;strokeColor=none;fillColor=none;" vertex="1" parent="1">
          <mxGeometry x="600" y="298" width="50" height="30" as="geometry" />
        </mxCell>
        <mxCell id="NzZjmMYiEf_9rbdnEXQE-14" value="对应段的段描述符中" style="whiteSpace=wrap;html=1;" vertex="1" parent="1">
          <mxGeometry x="562.5" y="390" width="125" height="27" as="geometry" />
        </mxCell>
        <mxCell id="NzZjmMYiEf_9rbdnEXQE-22" value="" style="edgeStyle=orthogonalEdgeStyle;rounded=0;orthogonalLoop=1;jettySize=auto;html=1;" edge="1" parent="1" source="NzZjmMYiEf_9rbdnEXQE-19" target="NzZjmMYiEf_9rbdnEXQE-21">
          <mxGeometry relative="1" as="geometry" />
        </mxCell>
        <mxCell id="NzZjmMYiEf_9rbdnEXQE-19" value="system_call" style="whiteSpace=wrap;html=1;" vertex="1" parent="1">
          <mxGeometry x="190" y="570" width="120" height="60" as="geometry" />
        </mxCell>
        <mxCell id="NzZjmMYiEf_9rbdnEXQE-21" value="system_call_table[n]" style="whiteSpace=wrap;html=1;" vertex="1" parent="1">
          <mxGeometry x="390" y="570" width="120" height="60" as="geometry" />
        </mxCell>
        <mxCell id="NzZjmMYiEf_9rbdnEXQE-24" value="int 0x80对应的idt表中中断向量描述符dpl为3" style="ellipse;whiteSpace=wrap;html=1;" vertex="1" parent="1">
          <mxGeometry x="20" y="550" width="140" height="90" as="geometry" />
        </mxCell>
      </root>
    </mxGraphModel>
  </diagram>
</mxfile>
